<?xml version="1.0" encoding="utf-8"?>
<!-- Generator: Adobe Illustrator 18.1.1, SVG Export Plug-In . SVG Version: 6.00 Build 0)  -->
<svg version="1.1" id="Layer_1" xmlns="http://www.w3.org/2000/svg" xmlns:xlink="http://www.w3.org/1999/xlink" x="0px" y="0px"
	 viewBox="274.5 8.2 400.9 600" enable-background="new 274.5 8.2 400.9 600" xml:space="preserve">
<g id="Layer_1_2_">
	<g>
		<g id="background">
		</g>
		<g id="Layer_1_1_">
			<g>
				<path fill="#2F2F2F" d="M474.8,608.2c-110.4,0-200.4-89.9-200.4-200.4s89.9-200.4,200.4-200.4s200.6,89.9,200.6,200.4
					S585.5,608.2,474.8,608.2z M474.8,338.6c-38.2,0-69.2,31-69.2,69.2s31,69.2,69.2,69.2s69.2-31,69.2-69.2
					C544,369.6,513.1,338.6,474.8,338.6z"/>
			</g>
			<line fill="none" x1="274.5" y1="42.3" x2="588.2" y2="242.5"/>
			
				<linearGradient id="SVGID_1_" gradientUnits="userSpaceOnUse" x1="408.9203" y1="361.8973" x2="233.9919" y2="361.8973" gradientTransform="matrix(1.4903 0 0 -1.4903 64.4462 848.0003)">
				<stop  offset="0.3283" style="stop-color:#000000;stop-opacity:0"/>
				<stop  offset="0.9024" style="stop-color:#000000;stop-opacity:0.8547"/>
				<stop  offset="1" style="stop-color:#000000"/>
			</linearGradient>
			<path fill="url(#SVGID_1_)" d="M414.1,225.2c0.3-11.8,34.3-17.9,51.4-17.9c96.4-0.1,148.7,53.8,145.3,53.4
				c27.7,22.7,55.1,61.7,62.7,120.6c5.2,39.9-71.7,26.7-71.7,26.7l-58-0.1c-1-16.5-6.3-30.6-10.9-37.9
				c-21.2-32.6-69.2-42.6-101.6-15.8C414.4,368,411.2,333.5,414.1,225.2z"/>
		</g>
		<g id="Layer_3">
			<path fill="#2F2F2F" d="M291,10.1l124.1,88.4c10.1,7.2,16.2,19.7,16.2,32.9v329.8l-156.9-55v-386C274.5,10.7,283.9,4.9,291,10.1z
				"/>
		</g>
	</g>
</g>
</svg>
