<?xml version="1.0" encoding="utf-8"?>
<!-- Generator: Adobe Illustrator 18.1.1, SVG Export Plug-In . SVG Version: 6.00 Build 0)  -->
<svg version="1.1" id="Layer_1" xmlns="http://www.w3.org/2000/svg" xmlns:xlink="http://www.w3.org/1999/xlink" x="0px" y="0px"
	 viewBox="199.5 0 401 600" enable-background="new 199.5 0 401 600" xml:space="preserve">
<g>
	<g id="Layer_1_2_">
		<g id="background">
		</g>
		<g>
			<g id="Layer_1_1_">
				<g>
					<path fill="#FFFFFF" d="M399.9,600c-110.5,0-200.4-89.9-200.4-200.5s89.9-200.4,200.4-200.4S600.5,289,600.5,399.5
						S510.6,600,399.9,600z M399.9,330.4c-38.2,0-69.1,31-69.1,69.1s31,69.1,69.1,69.1s69.1-31,69.1-69.1S438.1,330.4,399.9,330.4z"
						/>
				</g>
				<line fill="none" x1="199.5" y1="34.2" x2="513.3" y2="234.3"/>
			</g>
			<g id="Layer_3">
				<path fill="#FFFFFF" d="M216.1,1.9l124.1,88.4c10.1,7.2,16.2,19.7,16.2,33v329.8l-156.9-55v-386C199.5,2.6,209-3.2,216.1,1.9z"
					/>
			</g>
		</g>
	</g>
	<g id="Layer_2">
		
			<linearGradient id="SVGID_1_" gradientUnits="userSpaceOnUse" x1="-42.5" y1="327.1" x2="157.4" y2="327.1" gradientTransform="matrix(1 0 0 -1 399 600)">
			<stop  offset="1.002471e-02" style="stop-color:#636363"/>
			<stop  offset="4.208035e-02" style="stop-color:#818182"/>
			<stop  offset="0.1277" style="stop-color:#CFCED0"/>
			<stop  offset="0.2157" style="stop-color:#D5D4D6"/>
			<stop  offset="0.2378" style="stop-color:#D5D4D2"/>
			<stop  offset="0.3006" style="stop-color:#D6D5CC"/>
			<stop  offset="0.3096" style="stop-color:#D8D7CE"/>
			<stop  offset="0.404" style="stop-color:#E5E4E3"/>
			<stop  offset="0.4672" style="stop-color:#EAE9EA"/>
			<stop  offset="0.6431" style="stop-color:#FFFFFF"/>
		</linearGradient>
		<path opacity="0.32" fill="url(#SVGID_1_)" enable-background="new    " d="M556.4,274.3l-111.7,72.5c-29.8-21.4-59.2-22.1-88.2-1
			v-142c14-3.1,28.6-4.8,43.5-4.8C465.4,200.1,516.4,227.1,556.4,274.3"/>
		<path fill="none" d="M556.4,274.3"/>
	</g>
</g>
</svg>
