<?xml version="1.0" encoding="utf-8"?>
<!-- Generator: Adobe Illustrator 18.1.1, SVG Export Plug-In . SVG Version: 6.00 Build 0)  -->
<svg version="1.1" id="Layer_1" xmlns="http://www.w3.org/2000/svg" xmlns:xlink="http://www.w3.org/1999/xlink" x="0px" y="0px"
	 viewBox="211 0 377.8 600" enable-background="new 211 0 377.8 600" xml:space="preserve">
<path fill="#FFFFFF" d="M399.5,599.2L399.5,599.2c-5.8,0-11.6-1.4-16.6-4.3l-155-88.8c-10.5-6-16.9-17.1-16.9-29.2V29.8
	C211,13.4,224.4,0,240.8,0c4.3,0,8.7,1,12.6,2.7l69.3,32.4c10.5,4.8,17.2,15.5,17.2,27.1v143.2L384,180c5-2.9,10.8-4.5,16.6-4.5
	c5.8,0,11.6,1.6,16.6,4.3L572,268.5c10.5,6,16.9,17.1,16.8,29.2L588.3,476c0,11.9-6.4,22.9-16.8,28.8l-155.6,89.7
	C411.1,597.6,405.3,599.2,399.5,599.2z M249.7,474l149.8,85.7L549.8,473l0.5-172.2l-149.5-85.7l-99.5,57V67.8l-51.5-24.2L249.7,474
	L249.7,474z"/>
<rect x="301.3" y="238.9" fill="#FFFFFF" width="38.7" height="298"/>
<g>
	<path fill="none" stroke="#FFFFFF" stroke-miterlimit="10" d="M358.3,456.3l-37.4-65.1c-0.8-1.4-0.8-3.4,0-4.8l37.4-65.1
		c0.8-1.4,2.6-2.4,4.2-2.4h74.9c1.8,0,3.4,1,4.2,2.4l37.4,65.1c0.8,1.4,0.8,3.4,0,4.8l-37.4,65.1c-0.8,1.4-2.6,2.4-4.2,2.4h-74.7
		C360.9,458.7,359.2,457.8,358.3,456.3z"/>
	<path fill="#FFFFFF" stroke="#FFFFFF" stroke-miterlimit="10" d="M437.4,476.5h-74.7c-8.1,0-15.6-4.3-19.7-11.4L305.6,400
		c-4-6.9-4-15.6,0-22.6l37.4-65.1c4-6.9,11.6-11.3,19.7-11.3h74.9c8.1,0,15.6,4.3,19.7,11.4l37.4,65.1c4,6.9,4,15.6,0,22.6
		l-37.4,65.1C453,472.1,445.6,476.5,437.4,476.5z M370,441h60.1l30.1-52.3l-30.1-52.3H370l-30.1,52.3L370,441z"/>
</g>
</svg>
