<svg width="466" height="360" viewBox="0 0 470 364" xmlns="http://www.w3.org/2000/svg">
      <path d="M3.238 1.06H463.52c.818 0 1.48 1.342 1.48 3v351.165c0 1.657-.662 3-1.48 3H3.24c-.817 0-1.48-1.343-1.48-3V4.06c0-1.658.663-3 1.48-3" fill="none" stroke="#000" stroke-width="3"></path>
      <path d="M3.5 70H465" stroke="#000" stroke-width="3" stroke-linecap="square" opacity=".5"></path>
      <path d="M16.842 11.06c2.807 0 5.083 2.275 5.083 5.083 0 2.807-2.276 5.083-5.083 5.083-2.807 0-5.083-2.276-5.083-5.083 0-2.808 2.275-5.083 5.082-5.083" fill="none" stroke="#000" stroke-width="3"></path>
      <path d="M32.43 11.06c2.808 0 5.083 2.275 5.083 5.083 0 2.807-2.275 5.083-5.083 5.083-2.807 0-5.083-2.276-5.083-5.083 0-2.808 2.276-5.083 5.083-5.083" fill="none" stroke="#000" stroke-width="3"></path>
      <path d="M53.102 16.143c0 2.807-2.276 5.083-5.084 5.083-2.807 0-5.083-2.276-5.083-5.083 0-2.808 2.276-5.083 5.083-5.083 2.808 0 5.084 2.275 5.084 5.083z" fill="none" stroke="#000" stroke-width="3"></path>
      <path d="M82.566 33.477h371.997c.24 0 .437.447.437 1V56.57c0 .553-.196 1-.437 1H82.566c-.24 0-.437-.447-.437-1V34.478c0-.553.195-1 .436-1" fill="none" stroke="#000" stroke-width="3" opacity=".5"></path>
      <path d="M13.76 33.477h57c1.103 0 2 .895 2 2v20.095c0 1.103-.897 2-2 2h-57c-1.106 0-2-.897-2-2V35.477c0-1.105.894-2 2-2" stroke="#000" fill="none" stroke-width="3" opacity=".5"></path>
      <path d="M61.192 44.724c.442.33.532.958.2 1.4-.057.075-.124.143-.2.2l-7.333 5.5c-.443.332-1.07.242-1.4-.2-.13-.174-.2-.385-.2-.6v-11c0-.552.447-1 1-1 .215 0 .425.07.6.2l7.332 5.5z" fill="#000"></path>
      <path d="M29.992 51.823l-7.333-5.5c-.443-.33-.533-.958-.2-1.4.056-.075.123-.143.2-.2l7.332-5.5c.442-.33 1.07-.24 1.4.2.13.174.2.385.2.6v11c0 .552-.447 1-1 1-.216 0-.427-.07-.6-.2" fill="#000"></path>
</svg>