<?xml version="1.0" encoding="utf-8"?>
<!-- Generator: Adobe Illustrator 18.1.1, SVG Export Plug-In . SVG Version: 6.00 Build 0)  -->
<svg version="1.1" id="Layer_1" xmlns="http://www.w3.org/2000/svg" xmlns:xlink="http://www.w3.org/1999/xlink" x="0px" y="0px"
	 viewBox="0 0 454.7 406.3" enable-background="new 0 0 454.7 406.3" xml:space="preserve">
<g>
	<g>
		<path fill="#00BBFF" d="M183.9,348.1c-45,0-80.2-12.4-105.5-37.2c-25.3-24.8-38-60-38-105.5c0-46.8,11.7-83,35.1-108.6
			c23.4-25.6,55.8-38.4,97.1-38.4c39.5,0,70.2,11.2,92.2,33.7s33,53.6,33,93.2v37H117.6c0.8,21.7,7.2,38.6,19.2,50.7
			c12,12.2,28.8,18.2,50.5,18.2c16.8,0,32.7-1.7,47.7-5.2c15-3.5,30.7-9.1,47-16.7v59c-13.3,6.7-27.6,11.6-42.7,14.9
			C224.2,346.4,205.7,348.1,183.9,348.1z M173.1,112.6c-16.2,0-28.8,5.1-38,15.4c-9.2,10.2-14.4,24.8-15.7,43.6h107
			c-0.3-18.8-5.2-33.4-14.7-43.6C202.1,117.7,189.3,112.6,173.1,112.6z"/>
	</g>
	<linearGradient id="SVGID_1_" gradientUnits="userSpaceOnUse" x1="260.4178" y1="203.1579" x2="414.3552" y2="203.1579">
		<stop  offset="0" style="stop-color:#00BBFF"/>
		<stop  offset="1" style="stop-color:#81E1FF"/>
	</linearGradient>
	<path fill="url(#SVGID_1_)" d="M261.6,24.9c1.2-1.2,3.7-2.2,5-1.1c64.5,49.6,147.8,133.9,147.8,177.7c0,46.3-72.5,116-145.4,181.2
		c-1.3,1.1-3.4,0-4.5-1.4v0c-1-1.3-1.2-3.1-0.3-4.5c16.2-27.5,86-91.3,86.4-173.5C351,116.9,277.7,57.6,261,29.9
		C260,28.4,260.3,26.1,261.6,24.9L261.6,24.9z"/>
</g>
</svg>
