<?xml version="1.0" encoding="utf-8"?>
<!-- Generator: Adobe Illustrator 18.1.1, SVG Export Plug-In . SVG Version: 6.00 Build 0)  -->
<!DOCTYPE svg PUBLIC "-//W3C//DTD SVG 1.1//EN" "http://www.w3.org/Graphics/SVG/1.1/DTD/svg11.dtd">
<svg version="1.1" id="Layer_1" xmlns="http://www.w3.org/2000/svg" xmlns:xlink="http://www.w3.org/1999/xlink" x="0px" y="0px"
	 viewBox="-8 82.043 481.65 336.957" enable-background="new -8 82.043 481.65 336.957" xml:space="preserve">
<g>
	<polygon fill="#C6CFD4" points="73.27,340.6 83.724,305.153 91.001,349.847 86.523,383.299 82.163,378.581 	"/>
</g>
<g>
	<polygon fill="#C6CFD4" points="51.191,220.402 47.22,216.334 55.009,188.04 76.107,148.104 71.297,187.943 	"/>
</g>
<g>
	<polygon fill="#C6CFD4" points="49.817,284.776 46.199,279.269 49.167,250.167 71.294,214.745 62.079,255.914 	"/>
</g>
<g>
	<polygon fill="#C6CFD4" points="62.61,331.928 57.144,328.382 56.611,298.803 76.252,258.796 68.382,310.804 	"/>
</g>
<g>
	<polygon fill="#C6CFD4" points="42.957,160.869 47.219,124.034 25.896,143.577 37.251,183.963 	"/>
</g>
<g>
	<polygon fill="#C6CFD4" points="29.963,229.258 24.661,203.129 19.262,160.87 7.953,210.984 27.235,233.091 	"/>
</g>
<g>
	<polygon fill="#C6CFD4" points="27.013,286.404 30.406,281.767 18.958,254.952 -8,224.709 0.147,264.517 	"/>
</g>
<g>
	<polyline fill="#C6CFD4" points="39.467,335.069 40.976,329.266 28.07,305.164 -7.997,284.295 11.644,320.971 	"/>
</g>
<g>
	<polygon fill="#C6CFD4" points="56.612,373.121 56.489,366.377 38.072,344.858 -3.798,342.167 26.297,369.391 	"/>
</g>
<g>
	<polygon fill="#C6CFD4" points="69.802,397.951 70.242,390.96 45.976,381.442 5.902,390.449 44.154,409.265 	"/>
</g>
<g>
	<g>
		<path fill="#C6CFD4" d="M58.302,156.296v-0.005l5.583-18.31L80.02,84.996l-21.718,17.138l-3.664,47.417l0.102,0.189
			c-37.992,88.274-23.422,196.557,44.019,269.259l4.187-4.513C38.303,344.799,23.422,241.474,58.302,156.296"/>
	</g>
</g>
<g>
	<polygon fill="#C6CFD4" points="391.532,341.275 381.927,302.204 374.65,346.894 379.123,380.346 383.488,375.633 	"/>
</g>
<g>
	<polygon fill="#C6CFD4" points="414.461,217.449 418.431,213.381 410.642,185.087 389.544,145.152 397.097,189.202 	"/>
</g>
<g>
	<polygon fill="#C6CFD4" points="415.834,281.822 419.452,276.316 416.484,247.214 395.41,216.51 403.572,252.961 	"/>
</g>
<g>
	<polygon fill="#C6CFD4" points="403.042,328.975 408.507,325.429 409.04,295.851 389.399,255.843 395.412,303.65 	"/>
</g>
<g>
	<polygon fill="#C6CFD4" points="422.694,157.916 416.696,115.059 436.971,145.154 428.4,181.011 	"/>
</g>
<g>
	<polygon fill="#C6CFD4" points="435.688,226.306 440.984,200.177 446.388,157.918 459.186,201.021 438.415,230.139 	"/>
</g>
<g>
	<polygon fill="#C6CFD4" points="438.637,283.451 435.244,278.815 450.673,243.914 473.65,221.756 462.289,260.254 	"/>
</g>
<g>
	<polygon fill="#C6CFD4" points="426.184,332.117 424.679,326.314 437.585,302.211 473.647,281.343 459.748,315.46 	"/>
</g>
<g>
	<polygon fill="#C6CFD4" points="409.039,370.169 409.161,363.424 435.684,341.389 469.449,339.214 439.359,366.438 	"/>
</g>
<g>
	<polygon fill="#C6CFD4" points="395.849,394.999 395.409,388.008 419.67,378.49 459.749,387.497 422.157,401.482 	"/>
</g>
<g>
	<g>
		<path fill="#C6CFD4" d="M407.349,153.343L407.349,153.343l-5.578-18.315l-16.14-52.985l23.407,22.619l1.975,41.936l-0.102,0.194
			c37.992,88.269,23.422,196.552-44.019,269.254l-4.187-4.513C427.348,341.845,442.229,238.521,407.349,153.343"/>
	</g>
</g>

</svg>
